<svg xmlns="http://www.w3.org/2000/svg" width="187" height="178" fill="none"><path fill="url(#a)" fill-rule="evenodd" d="m98.136 86.742 18.763 8.773c1.915.763 4.211.382 5.361-.763.37-.369.779-.737 1.204-1.119.911-.82 1.855-1.672 2.625-2.695 1.532-1.526 1.914-3.815.765-5.34l-8.807-18.692c3.063-4.958 5.361-10.68 6.893-16.402l19.912-6.866c1.914-.763 3.063-2.288 3.446-4.577v-5.34c0-1.908-1.532-3.815-3.446-4.578l-19.529-7.247c-1.532-5.722-3.829-11.444-6.892-16.403l1.874-3.978c37.764 11.407 65.079 46.186 65.079 87.565 0 15.934-4.087 30.888-11.265 43.907-.459-1.073-1.919-1.78-3.025-1.78l-15.78.77a52.4 52.4 0 0 0-9.236-9.231l.77-15.769c0-1.154-.77-2.692-1.925-3.077-1.539-.769-2.694-1.154-4.233-1.538-1.155-.385-2.694 0-3.464.769l-10.393 11.538a37.397 37.397 0 0 0-13.085 0l-10.391-11.538c-.769-1.154-2.309-1.539-3.463-.769a5.374 5.374 0 0 1-.981.348c-.39.11-.728.205-.944.421-.77.384-1.54.769-1.925.769-1.154.385-1.924 1.923-1.924 3.077l.77 15.769c-3.465 2.692-6.928 5.769-9.237 9.231l-15.78-.77c-1.154 0-2.694.77-3.08 1.923-.769 1.539-1.153 2.693-1.538 4.231-.386 1.154 0 2.692.77 3.461l11.545 10.385a37.337 37.337 0 0 0 0 13.077l-11.545 10.385a2.618 2.618 0 0 0-1.086 1.5C27.913 164.245 1.277 129.632 1.277 89.08c0-13.956 3.137-27.163 8.74-38.974 1.58 5.738 3.877 11.46 6.94 16.419l-9.19 19.072c-.765 1.908-.382 4.196.766 5.34.37.37.741.778 1.124 1.2.806.89 1.668 1.84 2.706 2.615 1.531 1.526 3.829 1.907 5.36.763l18.764-8.773c4.978 3.051 10.72 5.34 16.464 6.866l6.894 19.835c.765 1.907 2.298 3.052 4.594 3.433h5.36c1.916 0 3.83-1.526 4.597-3.433l6.891-19.835c6.51-1.526 11.871-3.815 16.85-6.866Zm21.692 88.44c9.875 0 17.881-7.892 17.881-17.627s-8.006-17.626-17.881-17.626-17.882 7.891-17.882 17.626c0 9.735 8.007 17.627 17.882 17.627ZM92.668 36.2c0 13.854-11.267 25.084-25.165 25.084-13.899 0-25.166-11.23-25.166-25.084s11.267-25.084 25.166-25.084c13.898 0 25.165 11.23 25.165 25.084Z" clip-rule="evenodd"/><path fill="url(#b)" fill-rule="evenodd" d="m121.125 2.897-1.076 2.285c2.836 4.766 4.996 10.148 6.49 15.529l18.904 7.036.015.006c2.304.922 4.287 3.256 4.287 5.835v5.502l-.018.111c-.453 2.669-1.856 4.628-4.262 5.584l-.028.01-19.281 6.671c-1.494 5.374-3.652 10.75-6.485 15.502l8.453 17.99c1.527 2.17.87 5.08-.907 6.917-.827 1.085-1.81 1.978-2.662 2.752l-.076.07a40.61 40.61 0 0 1-.261.237c-.335.305-.632.574-.903.846l-.002.002-.002.002c-1.605 1.596-4.497 1.984-6.803 1.06l-.036-.014-18.166-8.517c-4.737 2.847-9.846 5.017-15.92 6.514l-6.663 19.242-.011.029c-.92 2.301-3.259 4.288-5.84 4.288h-5.507l-.112-.019c-2.665-.455-4.614-1.862-5.577-4.257l-.012-.03-6.679-19.264c-5.386-1.49-10.764-3.645-15.521-6.478L18.461 96.78c-2.162 1.516-5.082.875-6.92-.91-1.125-.855-2.052-1.881-2.827-2.741l-.002-.002-.042-.047a33.316 33.316 0 0 0-1.036-1.108l-.001-.001-.002-.002c-1.59-1.607-1.977-4.493-1.056-6.797l.017-.042 8.903-18.532c-2.342-3.933-4.223-8.29-5.67-12.728-4.6 10.828-7.154 22.75-7.154 35.284 0 39.688 25.739 73.636 61.686 85.714.255-.352.57-.664.933-.922l10.943-9.869a39.272 39.272 0 0 1 0-12.106l-11.032-9.949-.025-.025c-.604-.605-.992-1.43-1.179-2.238-.184-.796-.204-1.707.066-2.552.396-1.573.807-2.8 1.591-4.394.347-.937 1.09-1.609 1.81-2.031.752-.442 1.656-.716 2.502-.716h.033l15.08.74c2.284-3.2 5.43-6.04 8.547-8.506l-.74-15.163v-.033c0-.845.273-1.75.713-2.504.435-.746 1.136-1.517 2.123-1.85l.207-.07h.157l.029-.008c.074-.023.181-.063.326-.125.258-.111.56-.261.895-.43.23-.177.466-.288.654-.362.212-.085.44-.152.608-.2l.052-.016.007-.002c.287-.081.495-.141.687-.23 1.784-1.134 4.042-.511 5.177 1.105l9.845 10.962a38.999 38.999 0 0 1 12.076 0l9.93-11.056.028-.027c.603-.599 1.425-.984 2.231-1.17.793-.183 1.703-.204 2.548.068 1.562.395 2.79.798 4.386 1.597.934.35 1.602 1.094 2.022 1.814.44.754.713 1.659.713 2.504v.033l-.74 15.164a53.66 53.66 0 0 1 8.5 8.517l15.128-.743h.032c.873 0 1.881.296 2.725.849 6.529-12.489 10.23-26.69 10.23-41.79 0-40.505-26.392-74.623-63.05-86.237ZM9.005 51.196v-.002.001M121.062.08c-.856-.274-1.641.206-1.956.839l-.007.013-1.713 3.636-.006.014a1.649 1.649 0 0 0 .072 1.464l.013.024.015.024c2.911 4.772 5.121 10.276 6.616 15.805.153.644.643.968.932 1.097l.038.018 19.415 7.226c1.523.616 2.594 2.104 2.594 3.349v5.273c-.334 1.82-1.202 2.878-2.569 3.43l-19.723 6.824a1.621 1.621 0 0 0-1.048 1.084l-.005.017-.005.017c-1.493 5.533-3.703 11.042-6.614 15.808a1.622 1.622 0 0 0-.109 1.526l.006.014 8.811 18.75.083.11c.646.861.556 2.414-.643 3.617l-.067.066-.056.075c-.684.913-1.529 1.68-2.452 2.52l-.006.005-.233.212c-.34.308-.697.633-1.019.956-.696.69-2.374 1.078-3.892.486l-18.6-8.722-.012-.005a1.618 1.618 0 0 0-1.027-.097h-.196l-.321.197c-4.77 2.927-9.914 5.126-16.154 6.609-.627.138-.997.604-1.154.997l-.011.029-6.838 19.748c-.617 1.511-2.103 2.581-3.349 2.581h-5.275c-1.81-.335-2.87-1.203-3.43-2.573l-6.83-19.701a1.622 1.622 0 0 0-1.081-1.048l-.02-.006-.02-.005c-5.543-1.488-11.054-3.694-15.824-6.605a1.62 1.62 0 0 0-1.528-.107l-.012.005-18.762 8.797-.11.083c-.86.644-2.425.555-3.618-.642l-.068-.069-.078-.058c-.919-.687-1.706-1.547-2.519-2.448l-.064-.07c-.36-.398-.73-.805-1.104-1.18-.69-.7-1.074-2.374-.488-3.885l9.101-18.944a1.614 1.614 0 0 0-.08-1.577c-2.8-4.59-4.955-9.869-6.486-15.22-.386-1.352-2.387-1.724-3.058-.235C3.056 62.058 0 75.243 0 89.154c0 41.175 26.901 76.337 64.339 88.522l.017.006.018.005a1.643 1.643 0 0 0 2.002-.989c.087-.221.25-.432.493-.597l.078-.052 11.484-10.357.011-.009c.395-.353.623-.902.518-1.493-.7-3.983-.7-8.331-.001-12.325a1.622 1.622 0 0 0-.517-1.499l-.01-.01-11.384-10.265c-.166-.177-.348-.504-.448-.934-.102-.442-.085-.86.014-1.155l.016-.049.013-.051c.368-1.469.725-2.532 1.44-3.975l.041-.082.03-.087c.056-.168.25-.431.661-.672.39-.228.819-.342 1.124-.349l15.567.765c.59.04 1.132-.243 1.445-.71 2.166-3.193 5.392-6.1 8.74-8.717.47-.361.631-.888.631-1.303v-.033l-.764-15.662c.006-.308.12-.739.349-1.132.198-.339.41-.531.572-.62a2.99 2.99 0 0 0 .417-.098 5.87 5.87 0 0 0 .603-.227c.383-.165.806-.379 1.18-.569l.178-.09.099-.095a.6.6 0 0 1 .078-.03l.105-.035c.073-.023.15-.045.25-.075a.02.02 0 0 0 .007-.002l.024-.006c.289-.082.73-.206 1.181-.432l.077-.038.071-.048c.475-.32 1.208-.204 1.606.397l.054.082 10.339 11.511.009.01c.352.396.903.628 1.498.521a36.217 36.217 0 0 1 12.293-.001c.587.11 1.15-.122 1.503-.52l.009-.01 10.242-11.403c.176-.163.502-.344.93-.443.441-.102.855-.085 1.148.014l.049.017.05.012c1.471.371 2.526.72 3.957 1.442l.085.043.09.03c.166.056.428.251.668.663.229.393.343.824.35 1.132l-.765 15.662v.033c0 .415.162.942.632 1.303a51.07 51.07 0 0 1 8.789 8.805c.36.47.886.634 1.303.634h.033l15.627-.767c.584.011 1.349.37 1.674.811l.01.013.01.013c.712.918 2.153.832 2.727-.214l.002-.003.001-.003c7.121-13.149 11.175-28.201 11.175-44.23 0-42.021-27.596-77.366-65.786-89.055ZM67.595 12.265c-13.166 0-23.836 10.674-23.836 23.833 0 13.159 10.67 23.833 23.836 23.833 13.166 0 23.836-10.674 23.836-23.833 0-13.159-10.67-23.833-23.836-23.833ZM41.087 36.098c0-14.634 11.867-26.504 26.508-26.504 14.641 0 26.508 11.87 26.508 26.504 0 14.634-11.867 26.504-26.508 26.504-14.641 0-26.508-11.87-26.508-26.504Zm59.629 121.76c0-10.518 8.622-19.021 19.225-19.021 10.603 0 19.226 8.503 19.226 19.021 0 10.519-8.623 19.021-19.226 19.021s-19.225-8.502-19.225-19.021Zm19.225-16.349c-9.156 0-16.553 7.335-16.553 16.349s7.397 16.35 16.553 16.35c9.157 0 16.554-7.336 16.554-16.35 0-9.014-7.397-16.349-16.554-16.349Z" clip-rule="evenodd"/><defs><linearGradient id="a" x1="57.19" x2="137.135" y1="17.717" y2="176.418" gradientUnits="userSpaceOnUse"><stop stop-color="#19FBFF"/><stop offset=".193" stop-color="#1FA6FF"/><stop offset=".396" stop-color="#896BFF"/><stop offset=".615" stop-color="#FF2CFB"/><stop offset=".818" stop-color="#F7CE58"/><stop offset="1" stop-color="#F09343"/></linearGradient><linearGradient id="b" x1="64.25" x2="123.551" y1="27.318" y2="157.216" gradientUnits="userSpaceOnUse"><stop stop-color="#F1F2FF"/><stop offset=".127" stop-color="#19FBFF"/><stop offset=".224" stop-color="#1FA6FF"/><stop offset=".349" stop-color="#896BFF"/><stop offset=".479" stop-color="#F1F2FF"/><stop offset=".609" stop-color="#FF2CFB"/><stop offset=".724" stop-color="#F7CE58"/><stop offset=".859" stop-color="#F09343"/><stop offset="1" stop-color="#F1F2FF"/></linearGradient></defs></svg>