<svg xmlns="http://www.w3.org/2000/svg" width="221" height="28" fill="none"><g fill-rule="evenodd" clip-rule="evenodd" filter="url(#a)"><path fill="url(#b)" d="m15.9 12.634 2.084.975c.212.085.467.042.595-.085.041-.04.087-.082.134-.124a2.16 2.16 0 0 0 .291-.3c.17-.169.213-.423.085-.593l-.978-2.076c.34-.55.595-1.186.766-1.821l2.211-.763c.213-.085.34-.254.383-.508v-.594c0-.211-.17-.423-.383-.508l-2.169-.805a6.903 6.903 0 0 0-.765-1.822l.208-.442c4.194 1.267 7.228 5.13 7.228 9.726 0 1.77-.454 3.431-1.251 4.877-.051-.12-.213-.198-.336-.198l-1.753.086a5.824 5.824 0 0 0-1.026-1.025l.086-1.752c0-.128-.085-.299-.214-.342-.17-.085-.3-.128-.47-.17a.41.41 0 0 0-.385.085l-1.154 1.281a4.15 4.15 0 0 0-1.453 0l-1.154-1.281a.278.278 0 0 0-.385-.086c-.038.02-.075.03-.11.04-.042.011-.08.022-.104.046-.085.043-.17.085-.214.085-.128.043-.213.214-.213.342l.085 1.752c-.385.299-.77.64-1.026 1.025l-1.752-.086c-.129 0-.3.086-.342.214-.086.17-.129.299-.171.47a.41.41 0 0 0 .085.384l1.282 1.154c-.085.47-.085.982 0 1.452l-1.282 1.154a.291.291 0 0 0-.12.166c-4.113-1.324-7.071-5.169-7.071-9.673 0-1.55.348-3.017.97-4.329.176.638.43 1.273.771 1.824l-1.02 2.118c-.086.212-.043.466.084.594.042.04.083.086.125.133.09.098.186.204.3.29.17.17.426.212.596.085l2.084-.975c.553.34 1.191.594 1.829.763l.766 2.203c.085.212.255.34.51.382h.595c.213 0 .426-.17.51-.382l.766-2.203a6.191 6.191 0 0 0 1.872-.763Zm2.409 9.823c1.097 0 1.986-.876 1.986-1.957 0-1.082-.89-1.958-1.986-1.958-1.097 0-1.986.876-1.986 1.958 0 1.081.89 1.957 1.986 1.957ZM15.292 7.021a2.79 2.79 0 0 1-2.795 2.786 2.79 2.79 0 0 1-2.795-2.786 2.79 2.79 0 0 1 2.795-2.786 2.79 2.79 0 0 1 2.795 2.786Z"/><path fill="url(#c)" d="m18.453 3.322-.12.254c.316.529.556 1.127.722 1.724l2.1.782c.257.103.477.362.477.649v.61l-.002.013c-.05.296-.206.514-.473.62l-.003.001-2.142.741a7.113 7.113 0 0 1-.72 1.722l.939 1.998c.17.241.096.564-.101.768a2.32 2.32 0 0 1-.296.306l-.008.008c-.01.01-.02.018-.03.026-.037.034-.07.064-.1.094-.178.178-.5.221-.756.119l-.004-.002-2.017-.946a6.267 6.267 0 0 1-1.769.723l-.74 2.138v.003c-.103.255-.363.476-.65.476h-.611l-.012-.002c-.296-.05-.513-.207-.62-.473l-.001-.003-.742-2.14a7.098 7.098 0 0 1-1.724-.72l-2 .938c-.24.169-.564.098-.768-.1a2.326 2.326 0 0 1-.314-.305l-.005-.006a3.66 3.66 0 0 0-.115-.123c-.177-.179-.22-.5-.118-.755l.002-.005.989-2.058a7.057 7.057 0 0 1-.63-1.414 9.997 9.997 0 0 0-.794 3.92c0 4.407 2.858 8.178 6.851 9.52a.45.45 0 0 1 .104-.103l1.215-1.096a4.362 4.362 0 0 1 0-1.345l-1.225-1.105-.003-.003a.521.521 0 0 1-.13-.248.542.542 0 0 1 .006-.284c.044-.174.09-.31.177-.488a.453.453 0 0 1 .201-.225.566.566 0 0 1 .278-.08h.004l1.675.082c.253-.355.603-.67.949-.944l-.082-1.684v-.004a.57.57 0 0 1 .079-.278.448.448 0 0 1 .236-.206l.023-.007h.017l.003-.001a1.856 1.856 0 0 0 .136-.062.3.3 0 0 1 .073-.04.75.75 0 0 1 .067-.022l.006-.002a.51.51 0 0 0 .077-.026.426.426 0 0 1 .575.123l1.094 1.217c.437-.07.904-.07 1.34 0l1.104-1.228.003-.003a.522.522 0 0 1 .248-.13.541.541 0 0 1 .283.008c.173.044.31.089.487.177a.454.454 0 0 1 .224.202.57.57 0 0 1 .08.278v.004l-.083 1.684c.35.28.665.596.944.946l1.68-.083h.004c.097 0 .21.033.303.095a9.984 9.984 0 0 0 1.136-4.642c0-4.499-2.931-8.288-7.003-9.578ZM18.446 3.009a.182.182 0 0 0-.217.093v.001l-.191.404v.002a.183.183 0 0 0 .007.162l.002.003.001.003c.324.53.57 1.141.735 1.755a.18.18 0 0 0 .104.122l.004.002 2.156.803c.17.068.288.233.288.372v.585c-.037.202-.133.32-.285.381l-2.19.758a.18.18 0 0 0-.117.12v.002l-.001.002a6.806 6.806 0 0 1-.735 1.756.18.18 0 0 0-.012.17v.001l.98 2.083.009.012c.071.096.061.268-.072.402l-.007.007-.006.008c-.076.102-.17.187-.273.28l-.026.024c-.038.035-.078.07-.113.107-.078.076-.264.12-.433.053l-2.066-.968a.18.18 0 0 0-.115-.012h-.022l-.036.022c-.53.325-1.1.57-1.794.734a.182.182 0 0 0-.128.111l-.001.003-.76 2.194c-.068.167-.233.286-.371.286h-.586c-.201-.037-.32-.133-.381-.285l-.759-2.189a.18.18 0 0 0-.12-.116h-.002l-.002-.001a6.79 6.79 0 0 1-1.758-.734.18.18 0 0 0-.17-.012h-.001l-2.084.978-.012.01c-.096.07-.27.06-.402-.072l-.008-.008-.008-.006a2.01 2.01 0 0 1-.28-.272l-.007-.008c-.04-.044-.081-.09-.123-.131-.076-.078-.12-.264-.054-.431l1.01-2.105a.18.18 0 0 0-.008-.175 6.94 6.94 0 0 1-.72-1.69c-.043-.15-.265-.192-.34-.026A10.289 10.289 0 0 0 5 12.902c0 4.574 2.988 8.479 7.146 9.832h.002l.002.001a.182.182 0 0 0 .222-.11.145.145 0 0 1 .055-.066l.009-.005 1.275-1.15.002-.002a.18.18 0 0 0 .057-.166 4.051 4.051 0 0 1 0-1.369.18.18 0 0 0-.057-.166l-.002-.001-1.264-1.14a.234.234 0 0 1-.05-.104.245.245 0 0 1 .002-.128l.002-.006v-.005a1.99 1.99 0 0 1 .161-.442l.005-.009.003-.01c.006-.018.028-.048.073-.074a.276.276 0 0 1 .125-.039l1.73.085a.179.179 0 0 0 .16-.079c.24-.355.598-.677.97-.968a.182.182 0 0 0 .07-.145v-.003l-.085-1.74c.001-.034.014-.082.04-.126a.18.18 0 0 1 .063-.069.68.68 0 0 0 .113-.036c.043-.018.09-.042.131-.063l.02-.01.01-.01c.002 0 .002-.001.003-.002l.007-.002.011-.004.028-.008.003-.001a.718.718 0 0 0 .132-.048l.008-.004.008-.005c.053-.036.134-.023.178.044l.007.009 1.148 1.278v.001c.04.044.101.07.167.058a4.02 4.02 0 0 1 1.365 0 .18.18 0 0 0 .168-.058l1.138-1.267a.236.236 0 0 1 .103-.05.243.243 0 0 1 .128.002l.005.002.006.001c.163.042.28.08.44.16l.009.005.01.004c.018.006.047.027.074.073a.278.278 0 0 1 .039.126l-.085 1.74v.003c0 .046.018.105.07.145.365.286.69.612.976.978.04.052.099.07.145.07h.004l1.735-.085c.065.001.15.041.186.09l.001.002.002.001c.079.102.239.093.302-.024a10.281 10.281 0 0 0 1.242-4.913c0-4.667-3.065-8.593-7.307-9.891Zm-5.938 1.353a2.647 2.647 0 1 0 0 5.295 2.647 2.647 0 0 0 0-5.295ZM9.564 7.01a2.944 2.944 0 1 1 5.888.001 2.944 2.944 0 0 1-5.888 0Zm6.622 13.524c0-1.168.958-2.113 2.136-2.113 1.178 0 2.135.945 2.135 2.113a2.124 2.124 0 0 1-2.135 2.113 2.124 2.124 0 0 1-2.136-2.113Zm2.136-1.816a1.827 1.827 0 0 0-1.839 1.816c0 1.001.822 1.816 1.839 1.816a1.827 1.827 0 0 0 1.838-1.816 1.827 1.827 0 0 0-1.838-1.816Z"/></g><path fill="url(#d)" d="M35.4 22.178c0 .384.16.548.535.548h2.403c.374 0 .534-.164.534-.548v-7.863h7.343v7.863c0 .384.16.548.534.548h2.404c.373 0 .534-.164.534-.548V4.096c0-.384-.16-.548-.534-.548h-2.404c-.373 0-.534.164-.534.548v6.877h-7.343V4.096c0-.384-.16-.548-.534-.548h-2.404c-.373 0-.534.164-.534.548v18.082Z"/><path fill="url(#e)" d="M62.76 22.014c.187.575.374.712.721.712h1.896c.374 0 .534-.164.534-.548v-11.78c0-.384-.16-.549-.534-.549h-2.243c-.374 0-.534.165-.534.548v.493c-.908-.849-1.95-1.315-3.632-1.315-3.471 0-6.435 2.466-6.435 6.713 0 4.548 2.99 6.712 6.355 6.712 1.816 0 2.83-.575 3.739-1.37l.133.384Zm-.16-5.124c0 .877-.187 1.316-.641 1.946-.56.712-1.495 1.15-2.59 1.15-1.87 0-3.418-1.397-3.418-3.698 0-2.302 1.629-3.699 3.471-3.699 1.068 0 1.843.329 2.43.904.56.548.748 1.123.748 1.973v1.424Z"/><path fill="url(#f)" d="M79.12 18.534c-.107-.11-.214-.164-.321-.164-.134 0-.214.055-.32.164-.908 1.014-1.923 1.452-3.071 1.452-1.95 0-3.472-1.452-3.472-3.67 0-2.302 1.602-3.727 3.498-3.727 1.282 0 2.056.411 2.964 1.342.107.11.214.165.348.165.133 0 .213-.055.32-.165l1.308-1.67c.107-.138.16-.247.16-.357 0-.137-.08-.274-.213-.41-.988-1.042-2.564-1.919-4.833-1.919-3.846 0-6.97 2.658-6.97 6.713 0 4.465 3.231 6.712 6.836 6.712 2.083 0 3.632-.575 5.26-2.356.108-.11.161-.22.161-.329 0-.11-.053-.22-.134-.301l-1.522-1.48Z"/><path fill="url(#g)" d="M82.957 22.178c0 .384.16.548.534.548h2.243c.374 0 .534-.164.534-.548v-4.274l.481-.493 3.498 4.931c.16.247.374.384.641.384h3.285c.213 0 .32-.11.32-.274a.389.389 0 0 0-.08-.247l-5.234-7.37 4.22-4.438a.398.398 0 0 0 .106-.274c0-.164-.107-.274-.32-.274h-3.312c-.267 0-.534.165-.72.384L86.267 13.3V3.548c0-.384-.16-.548-.534-.548h-2.243c-.374 0-.534.164-.534.548v18.63Z"/><path fill="url(#h)" d="M104.131 19.411c0 2.493 1.602 3.589 4.005 3.589.668 0 1.362-.055 1.869-.137.321-.055.401-.137.401-.41V20.15c0-.192-.08-.302-.267-.302-.294 0-.748.137-1.282.137-.961 0-1.415-.602-1.415-1.753v-5.37h2.724c.373 0 .534-.164.534-.548v-1.918c0-.383-.161-.548-.534-.548h-2.724V5.96c0-.384-.16-.548-.534-.548h-2.243c-.374 0-.534.164-.534.548v3.89h-1.896c-.374 0-.534.165-.534.548v1.918c0 .384.16.548.534.548h1.896v6.548Z"/><path fill="url(#i)" d="M113.077 22.178c0 .384.16.548.534.548h2.243c.374 0 .534-.164.534-.548v-4.712c0-1.48.294-2.247.855-3.15.587-.96 1.575-1.727 2.75-1.727 1.202 0 1.869.658 1.869 1.89v7.7c0 .383.161.547.534.547h2.243c.374 0 .535-.164.535-.548v-8.822c0-2.246-1.549-3.78-4.246-3.78-1.736 0-3.285.712-4.54 1.917V3.548c0-.384-.16-.548-.534-.548h-2.243c-.374 0-.534.164-.534.548v18.63Z"/><path fill="url(#j)" d="M138.554 18.48c-.133-.137-.24-.192-.347-.192-.16 0-.267.082-.401.246-.827.904-1.842 1.562-3.257 1.562-1.683 0-3.045-.877-3.499-2.576h9.08c.373 0 .534-.164.534-.547v-.822c0-3.124-1.976-6.576-6.356-6.576-3.471 0-6.515 2.63-6.515 6.713 0 4.328 3.151 6.712 6.622 6.712 2.457 0 3.845-.712 5.554-2.438.107-.11.161-.22.161-.33 0-.109-.054-.218-.134-.3l-1.442-1.452Zm-7.504-3.809c.454-1.233 1.603-2.246 3.232-2.246 1.522 0 2.643.849 3.07 2.246h-6.302Z"/><path fill="url(#k)" d="M150.194 22.178c0 .384.16.548.534.548h2.403c.374 0 .535-.164.535-.548V10.315l8.197 11.863c.214.329.428.548.962.548h1.896c.374 0 .534-.164.534-.548V4.096c0-.384-.16-.548-.534-.548h-2.404c-.373 0-.534.164-.534.548v11.452l-7.824-11.452c-.213-.329-.427-.548-.961-.548h-2.27c-.374 0-.534.164-.534.548v18.082Z"/><path fill="url(#l)" d="M174.758 23c3.659 0 6.676-2.22 6.676-6.712 0-4.192-2.937-6.713-6.676-6.713-3.738 0-6.676 2.52-6.676 6.713 0 4.493 3.018 6.712 6.676 6.712Zm0-3.014c-2.002 0-3.257-1.506-3.257-3.67 0-2.384 1.495-3.727 3.257-3.727 1.763 0 3.258 1.342 3.258 3.726 0 2.165-1.255 3.671-3.258 3.671Z"/><path fill="url(#m)" d="M184.112 22.178c0 .384.16.548.534.548h2.243c.374 0 .535-.164.535-.548v-5.014c0-1.644.453-2.74 1.121-3.534.481-.575 1.148-1.041 2.056-1.041.855 0 1.362.438 1.469 1.178.053.329.133.439.427.439h2.163c.347 0 .534-.165.534-.548 0-2.411-1.549-4.083-4.032-4.083-1.656 0-2.857.63-3.738 1.644v-.822c0-.383-.161-.548-.535-.548h-2.243c-.374 0-.534.165-.534.548v11.781Z"/><path fill="url(#n)" d="M199.157 19.411c0 2.493 1.603 3.589 4.006 3.589.667 0 1.362-.055 1.869-.137.321-.055.401-.137.401-.41V20.15c0-.192-.08-.302-.267-.302-.294 0-.748.137-1.282.137-.961 0-1.415-.602-1.415-1.753v-5.37h2.723c.374 0 .534-.164.534-.548v-1.918c0-.383-.16-.548-.534-.548h-2.723V5.96c0-.384-.161-.548-.534-.548h-2.244c-.373 0-.534.164-.534.548v3.89h-1.896c-.373 0-.534.165-.534.548v1.918c0 .384.161.548.534.548h1.896v6.548Z"/><path fill="url(#o)" d="M208.104 22.178c0 .384.16.548.534.548h2.243c.374 0 .534-.164.534-.548v-4.712c0-1.48.294-2.247.854-3.15.588-.96 1.576-1.727 2.751-1.727 1.202 0 1.869.658 1.869 1.89v7.7c0 .383.16.547.534.547h2.243c.374 0 .534-.164.534-.548v-8.822c0-2.246-1.548-3.78-4.245-3.78-1.736 0-3.285.712-4.54 1.917V3.548c0-.384-.16-.548-.534-.548h-2.243c-.374 0-.534.164-.534.548v18.63Z"/><defs><linearGradient id="b" x1="11.352" x2="20.231" y1="4.968" y2="22.595" gradientUnits="userSpaceOnUse"><stop stop-color="#19FBFF"/><stop offset=".193" stop-color="#1FA6FF"/><stop offset=".396" stop-color="#896BFF"/><stop offset=".615" stop-color="#FF2CFB"/><stop offset=".818" stop-color="#F7CE58"/><stop offset="1" stop-color="#F09343"/></linearGradient><linearGradient id="c" x1="12.136" x2="18.723" y1="6.034" y2="20.462" gradientUnits="userSpaceOnUse"><stop stop-color="#F1F2FF"/><stop offset=".127" stop-color="#19FBFF"/><stop offset=".224" stop-color="#1FA6FF"/><stop offset=".349" stop-color="#896BFF"/><stop offset=".479" stop-color="#F1F2FF"/><stop offset=".609" stop-color="#FF2CFB"/><stop offset=".724" stop-color="#F7CE58"/><stop offset=".859" stop-color="#F09343"/><stop offset="1" stop-color="#F1F2FF"/></linearGradient><linearGradient id="d" x1="220.2" x2="35.397" y1="16.439" y2="13.109" gradientUnits="userSpaceOnUse"><stop stop-color="#19FBFF"/><stop offset=".51" stop-color="#FF2CFB"/><stop offset="1" stop-color="#F7CE58"/></linearGradient><linearGradient id="e" x1="220.2" x2="35.397" y1="16.439" y2="13.109" gradientUnits="userSpaceOnUse"><stop stop-color="#19FBFF"/><stop offset=".51" stop-color="#FF2CFB"/><stop offset="1" stop-color="#F7CE58"/></linearGradient><linearGradient id="f" x1="220.2" x2="35.397" y1="16.439" y2="13.109" gradientUnits="userSpaceOnUse"><stop stop-color="#19FBFF"/><stop offset=".51" stop-color="#FF2CFB"/><stop offset="1" stop-color="#F7CE58"/></linearGradient><linearGradient id="g" x1="220.2" x2="35.397" y1="16.439" y2="13.109" gradientUnits="userSpaceOnUse"><stop stop-color="#19FBFF"/><stop offset=".51" stop-color="#FF2CFB"/><stop offset="1" stop-color="#F7CE58"/></linearGradient><linearGradient id="h" x1="220.2" x2="35.397" y1="16.439" y2="13.109" gradientUnits="userSpaceOnUse"><stop stop-color="#19FBFF"/><stop offset=".51" stop-color="#FF2CFB"/><stop offset="1" stop-color="#F7CE58"/></linearGradient><linearGradient id="i" x1="220.2" x2="35.397" y1="16.439" y2="13.109" gradientUnits="userSpaceOnUse"><stop stop-color="#19FBFF"/><stop offset=".51" stop-color="#FF2CFB"/><stop offset="1" stop-color="#F7CE58"/></linearGradient><linearGradient id="j" x1="220.2" x2="35.397" y1="16.439" y2="13.109" gradientUnits="userSpaceOnUse"><stop stop-color="#19FBFF"/><stop offset=".51" stop-color="#FF2CFB"/><stop offset="1" stop-color="#F7CE58"/></linearGradient><linearGradient id="k" x1="220.2" x2="35.397" y1="16.439" y2="13.109" gradientUnits="userSpaceOnUse"><stop stop-color="#19FBFF"/><stop offset=".51" stop-color="#FF2CFB"/><stop offset="1" stop-color="#F7CE58"/></linearGradient><linearGradient id="l" x1="220.2" x2="35.397" y1="16.439" y2="13.109" gradientUnits="userSpaceOnUse"><stop stop-color="#19FBFF"/><stop offset=".51" stop-color="#FF2CFB"/><stop offset="1" stop-color="#F7CE58"/></linearGradient><linearGradient id="m" x1="220.2" x2="35.397" y1="16.439" y2="13.109" gradientUnits="userSpaceOnUse"><stop stop-color="#19FBFF"/><stop offset=".51" stop-color="#FF2CFB"/><stop offset="1" stop-color="#F7CE58"/></linearGradient><linearGradient id="n" x1="220.2" x2="35.397" y1="16.439" y2="13.109" gradientUnits="userSpaceOnUse"><stop stop-color="#19FBFF"/><stop offset=".51" stop-color="#FF2CFB"/><stop offset="1" stop-color="#F7CE58"/></linearGradient><linearGradient id="o" x1="220.2" x2="35.397" y1="16.439" y2="13.109" gradientUnits="userSpaceOnUse"><stop stop-color="#19FBFF"/><stop offset=".51" stop-color="#FF2CFB"/><stop offset="1" stop-color="#F7CE58"/></linearGradient><filter id="a" width="28.753" height="27.743" x="0" y="0" color-interpolation-filters="sRGB" filterUnits="userSpaceOnUse"><feFlood flood-opacity="0" result="BackgroundImageFix"/><feColorMatrix in="SourceAlpha" result="hardAlpha" values="0 0 0 0 0 0 0 0 0 0 0 0 0 0 0 0 0 0 127 0"/><feOffset dx="-1" dy="1"/><feGaussianBlur stdDeviation="2"/><feComposite in2="hardAlpha" operator="out"/><feColorMatrix values="0 0 0 0 0 0 0 0 0 0 0 0 0 0 0 0 0 0 0.25 0"/><feBlend in2="BackgroundImageFix" result="effect1_dropShadow_357_5949"/><feBlend in="SourceGraphic" in2="effect1_dropShadow_357_5949" result="shape"/></filter></defs></svg>